<svg width="28" height="28" viewBox="0 0 28 28" fill="none" xmlns="http://www.w3.org/2000/svg">
<path d="M7.523 19.7923C8.373 19.1616 9.299 18.6635 10.301 18.298C11.3028 17.9327 12.3692 17.75 13.5 17.75C14.6308 17.75 15.6972 17.9327 16.699 18.298C17.701 18.6635 18.627 19.1616 19.477 19.7923C20.0987 19.1089 20.5912 18.3179 20.9548 17.4192C21.3183 16.5206 21.5 15.5475 21.5 14.5C21.5 12.2833 20.7208 10.3958 19.1625 8.8375C17.6042 7.27917 15.7167 6.5 13.5 6.5C11.2833 6.5 9.39583 7.27917 7.8375 8.8375C6.27917 10.3958 5.5 12.2833 5.5 14.5C5.5 15.5475 5.68175 16.5206 6.04525 17.4192C6.40875 18.3179 6.90133 19.1089 7.523 19.7923ZM13.5003 15.25C12.5873 15.25 11.8173 14.9367 11.1905 14.31C10.5635 13.6832 10.25 12.9133 10.25 12.0003C10.25 11.0873 10.5633 10.3173 11.19 9.6905C11.8168 9.0635 12.5868 8.75 13.4998 8.75C14.4128 8.75 15.1827 9.06333 15.8095 9.69C16.4365 10.3168 16.75 11.0868 16.75 11.9997C16.75 12.9127 16.4367 13.6827 15.81 14.3095C15.1832 14.9365 14.4132 15.25 13.5003 15.25ZM13.5 24C12.1808 24 10.9433 23.7519 9.7875 23.2558C8.63167 22.7596 7.62625 22.0839 6.77125 21.2288C5.91608 20.3738 5.24042 19.3683 4.74425 18.2125C4.24808 17.0567 4 15.8192 4 14.5C4 13.1808 4.24808 11.9433 4.74425 10.7875C5.24042 9.63167 5.91608 8.62625 6.77125 7.77125C7.62625 6.91608 8.63167 6.24042 9.7875 5.74425C10.9433 5.24808 12.1808 5 13.5 5C14.8192 5 16.0567 5.24808 17.2125 5.74425C18.3683 6.24042 19.3738 6.91608 20.2288 7.77125C21.0839 8.62625 21.7596 9.63167 22.2558 10.7875C22.7519 11.9433 23 13.1808 23 14.5C23 15.8192 22.7519 17.0567 22.2558 18.2125C21.7596 19.3683 21.0839 20.3738 20.2288 21.2288C19.3738 22.0839 18.3683 22.7596 17.2125 23.2558C16.0567 23.7519 14.8192 24 13.5 24ZM13.5 22.5C14.4025 22.5 15.2727 22.3548 16.1105 22.0645C16.9483 21.774 17.6923 21.3679 18.3422 20.8462C17.6923 20.3436 16.958 19.9519 16.1395 19.6712C15.3208 19.3904 14.441 19.25 13.5 19.25C12.559 19.25 11.6776 19.3888 10.8558 19.6663C10.0339 19.9439 9.30125 20.3372 8.65775 20.8462C9.30775 21.3679 10.0517 21.774 10.8895 22.0645C11.7273 22.3548 12.5975 22.5 13.5 22.5ZM13.5 13.75C13.9975 13.75 14.4135 13.5827 14.748 13.248C15.0827 12.9135 15.25 12.4975 15.25 12C15.25 11.5025 15.0827 11.0865 14.748 10.752C14.4135 10.4173 13.9975 10.25 13.5 10.25C13.0025 10.25 12.5865 10.4173 12.252 10.752C11.9173 11.0865 11.75 11.5025 11.75 12C11.75 12.4975 11.9173 12.9135 12.252 13.248C12.5865 13.5827 13.0025 13.75 13.5 13.75Z" fill="#1F1F1F"/>
</svg>
