<?xml version="1.0" standalone="no"?>
<!DOCTYPE svg PUBLIC "-//W3C//DTD SVG 20010904//EN"
 "http://www.w3.org/TR/2001/REC-SVG-20010904/DTD/svg10.dtd">
<svg version="1.0" xmlns="http://www.w3.org/2000/svg"
 width="32.000000pt" height="32.000000pt" viewBox="0 0 32.000000 32.000000"
 preserveAspectRatio="xMidYMid meet">

<g transform="translate(0.000000,32.000000) scale(0.100000,-0.100000)"
fill="#000000" stroke="none">
<path d="M190 190 c0 -7 -4 -8 -60 -11 -19 -1 -38 -7 -42 -13 -5 -7 -8 -4 -8
7 0 21 -29 23 -31 2 -1 -8 -2 -20 -3 -27 -2 -19 103 -17 115 2 7 13 8 13 9 0
0 -19 60 -21 60 -2 0 7 4 11 10 7 5 -3 7 -12 3 -20 -3 -9 1 -15 11 -15 9 0 16
6 16 14 0 8 3 21 6 30 4 12 0 16 -15 16 -12 0 -21 4 -21 9 0 5 -11 9 -25 9
-14 0 -25 -4 -25 -8z"/>
</g>
</svg>
