<svg width="28" height="28" viewBox="0 0 28 28" fill="none" xmlns="http://www.w3.org/2000/svg">
<path d="M13.5 22.1768L12.3963 21.1845C10.7386 19.6807 9.36775 18.3884 8.28375 17.3077C7.19975 16.2269 6.34075 15.265 5.70675 14.422C5.07275 13.5792 4.62983 12.8102 4.378 12.1152C4.126 11.4204 4 10.7153 4 10C4 8.58083 4.4785 7.39267 5.4355 6.4355C6.39267 5.4785 7.58083 5 9 5C9.873 5 10.698 5.20417 11.475 5.6125C12.252 6.02083 12.927 6.60642 13.5 7.36925C14.073 6.60642 14.748 6.02083 15.525 5.6125C16.302 5.20417 17.127 5 18 5C19.4192 5 20.6073 5.4785 21.5645 6.4355C22.5215 7.39267 23 8.58083 23 10C23 10.7153 22.874 11.4204 22.622 12.1152C22.3702 12.8102 21.9272 13.5792 21.2932 14.422C20.6593 15.265 19.8018 16.2269 18.721 17.3077C17.6403 18.3884 16.2679 19.6807 14.6038 21.1845L13.5 22.1768ZM13.5 20.15C15.1 18.7103 16.4167 17.4763 17.45 16.448C18.4833 15.4198 19.3 14.5266 19.9 13.7683C20.5 13.0099 20.9167 12.3365 21.15 11.748C21.3833 11.1597 21.5 10.577 21.5 10C21.5 9 21.1667 8.16667 20.5 7.5C19.8333 6.83333 19 6.5 18 6.5C17.2103 6.5 16.4805 6.724 15.8105 7.172C15.1407 7.62017 14.6102 8.24358 14.2192 9.04225H12.7808C12.3833 8.23708 11.8512 7.61208 11.1845 7.16725C10.5178 6.72242 9.78967 6.5 9 6.5C8.00633 6.5 7.17458 6.83333 6.50475 7.5C5.83492 8.16667 5.5 9 5.5 10C5.5 10.577 5.61667 11.1597 5.85 11.748C6.08333 12.3365 6.5 13.0099 7.1 13.7683C7.7 14.5266 8.51667 15.4183 9.55 16.4433C10.5833 17.4683 11.9 18.7038 13.5 20.15Z" fill="#1F1F1F"/>
</svg>
