<svg xmlns="http://www.w3.org/2000/svg" width="512" height="512" viewBox="0 0 135.467 135.467"><circle cx="67.733" cy="67.733" r="67.733" style="fill:#ffe227;stroke-width:.132292;stroke-linecap:round;stroke-linejoin:round;stroke:none;fill-opacity:1"/><g style="stroke-width:.938309"><path d="M67.594 28.817a42.191 33.485 0 0 0-42.052 33.485 42.191 33.485 0 0 0 19.113 28.031c-1.925 6.013-4.736 15.418-3.717 16.248 1.084.882 12.716-6.914 19.148-11.348a42.191 33.485 0 0 0 7.647.555 42.191 33.485 0 0 0 42.191-33.486 42.191 33.485 0 0 0-42.19-33.485 42.191 33.485 0 0 0-.14 0z" style="fill:#1a1a1a;stroke:none;stroke-width:.124131;stroke-linecap:round;stroke-linejoin:round;stroke-miterlimit:4;stroke-dasharray:none" transform="matrix(1.06575 0 0 1.06575 -4.453 -4.453)"/><g style="stroke-width:.615119"><path d="M182.633 207.496a6.501 6.501 0 0 0-6.516 6.516v.025a6.501 6.501 0 0 0 6.516 6.516h10.181v39.183a6.514 6.514 0 0 0 6.53 6.528 6.513 6.513 0 0 0 6.527-6.528v-39.183h10.467a6.501 6.501 0 0 0 6.516-6.516v-.025a6.501 6.501 0 0 0-6.516-6.516h-16.994zM237.29 207.475a7.649 7.649 0 0 0-2.015.27 6.509 6.509 0 0 0-5.328 4.142l-17.52 45.576a6.514 6.514 0 0 0 3.753 8.435 6.513 6.513 0 0 0 8.435-3.75l2.655-6.908h20.322l2.656 6.908a6.513 6.513 0 0 0 8.436 3.75 6.513 6.513 0 0 0 3.75-8.435l-17.518-45.576a6.508 6.508 0 0 0-5.744-4.176 7.649 7.649 0 0 0-1.883-.236zm.142 21.33 5.142 13.379H232.29zM273.004 207.496a6.636 6.636 0 0 0-6.65 6.652v45.463a6.636 6.636 0 0 0 6.65 6.653h20.152a6.638 6.638 0 0 0 6.653-6.653 6.638 6.638 0 0 0-6.653-6.652h-13.5v-38.81a6.638 6.638 0 0 0-6.652-6.653zM308.916 207.496a6.638 6.638 0 0 0-6.652 6.652v45.463a6.638 6.638 0 0 0 6.652 6.653 6.636 6.636 0 0 0 6.65-6.653v-13.965c.069-.064.141-.123.207-.19l2.32-2.376 15.475 20.563a6.637 6.637 0 0 0 9.315 1.316 6.639 6.639 0 0 0 1.314-9.316l-16.699-22.19 14.063-14.394a6.643 6.643 0 0 0-.108-9.41 6.633 6.633 0 0 0-9.404.107l-16.483 16.871v-12.479a6.636 6.636 0 0 0-6.65-6.652z" style="fill:#ffe227;fill-opacity:1;stroke:none;stroke-width:.307561;stroke-linecap:round;stroke-linejoin:round;stroke-miterlimit:4;stroke-dasharray:none" transform="matrix(.43013 0 0 .43013 -44.67 -40.094)"/></g></g></svg>