<svg width="28" height="28" viewBox="0 0 28 28" fill="none" xmlns="http://www.w3.org/2000/svg">
<path d="M6.80775 23.5C6.30908 23.5 5.88308 23.3234 5.52975 22.9703C5.17658 22.6169 5 22.1909 5 21.6923V10.3078C5 9.80908 5.17658 9.38308 5.52975 9.02975C5.88308 8.67658 6.30908 8.5 6.80775 8.5H9C9 7.25133 9.43783 6.18917 10.3135 5.3135C11.1892 4.43783 12.2513 4 13.5 4C14.7487 4 15.8108 4.43783 16.6865 5.3135C17.5622 6.18917 18 7.25133 18 8.5H20.1923C20.6909 8.5 21.1169 8.67658 21.4703 9.02975C21.8234 9.38308 22 9.80908 22 10.3078V21.6923C22 22.1909 21.8234 22.6169 21.4703 22.9703C21.1169 23.3234 20.6909 23.5 20.1923 23.5H6.80775ZM6.80775 22H20.1923C20.2692 22 20.3398 21.9679 20.4038 21.9038C20.4679 21.8398 20.5 21.7693 20.5 21.6923V10.3078C20.5 10.2308 20.4679 10.1602 20.4038 10.0962C20.3398 10.0321 20.2692 10 20.1923 10H6.80775C6.73075 10 6.66025 10.0321 6.59625 10.0962C6.53208 10.1602 6.5 10.2308 6.5 10.3078V21.6923C6.5 21.7693 6.53208 21.8398 6.59625 21.9038C6.66025 21.9679 6.73075 22 6.80775 22ZM13.5 15.5C14.7487 15.5 15.8108 15.0622 16.6865 14.1865C17.5622 13.3108 18 12.2487 18 11H16.5C16.5 11.8333 16.2083 12.5417 15.625 13.125C15.0417 13.7083 14.3333 14 13.5 14C12.6667 14 11.9583 13.7083 11.375 13.125C10.7917 12.5417 10.5 11.8333 10.5 11H9C9 12.2487 9.43783 13.3108 10.3135 14.1865C11.1892 15.0622 12.2513 15.5 13.5 15.5ZM10.5 8.5H16.5C16.5 7.66667 16.2083 6.95833 15.625 6.375C15.0417 5.79167 14.3333 5.5 13.5 5.5C12.6667 5.5 11.9583 5.79167 11.375 6.375C10.7917 6.95833 10.5 7.66667 10.5 8.5Z" fill="#1F1F1F"/>
</svg>
