<svg width="28" height="28" viewBox="0 0 28 28" fill="none" xmlns="http://www.w3.org/2000/svg">
<path d="M6 20.3845V18.8848H7.80775V11.423C7.80775 10.0782 8.22283 8.88908 9.053 7.85575C9.883 6.82242 10.9487 6.1615 12.25 5.873V5.25C12.25 4.90283 12.3714 4.60767 12.6143 4.3645C12.8571 4.1215 13.1519 4 13.4988 4C13.8458 4 14.141 4.1215 14.3845 4.3645C14.6282 4.60767 14.75 4.90283 14.75 5.25V5.873C16.0513 6.1615 17.117 6.82242 17.947 7.85575C18.7772 8.88908 19.1923 10.0782 19.1923 11.423V18.8848H21V20.3845H6ZM13.4983 23.1923C13.0008 23.1923 12.5754 23.0153 12.2223 22.6613C11.8689 22.3073 11.6923 21.8817 11.6923 21.3845H15.3077C15.3077 21.8833 15.1306 22.3093 14.7762 22.6625C14.4219 23.0157 13.9959 23.1923 13.4983 23.1923ZM9.30775 18.8848H17.6923V11.423C17.6923 10.2653 17.283 9.27725 16.4645 8.45875C15.6458 7.64008 14.6577 7.23075 13.5 7.23075C12.3423 7.23075 11.3542 7.64008 10.5355 8.45875C9.717 9.27725 9.30775 10.2653 9.30775 11.423V18.8848Z" fill="#1F1F1F"/>
</svg>
