<svg width="28" height="28" viewBox="0 0 28 28" fill="none" xmlns="http://www.w3.org/2000/svg">
<path fill-rule="evenodd" clip-rule="evenodd" d="M21.4106 13.6855C20.6815 18.1288 16.4885 21.1398 12.0452 20.4107C7.60189 19.6816 4.59093 15.4886 5.32001 11.0453C6.0491 6.602 10.2421 3.59104 14.6854 4.32012C19.1287 5.04921 22.1397 9.24225 21.4106 13.6855ZM12.369 18.4371C15.7223 18.9873 18.8867 16.715 19.437 13.3617C19.9872 10.0084 17.7149 6.84396 14.3616 6.29373C11.0083 5.7435 7.84385 8.01583 7.29362 11.3691C6.74339 14.7224 9.01572 17.8869 12.369 18.4371Z" fill="black"/>
<path fill-rule="evenodd" clip-rule="evenodd" d="M22.3333 23.5685L17.5907 18.8258L19.0049 17.4116L23.7475 22.1543C24.0562 22.463 23.9899 23.0298 23.5994 23.4203C23.2088 23.8108 22.642 23.8772 22.3333 23.5685Z" fill="black"/>
</svg>
